<svg width="20" height="20" viewBox="0 0 20 20" fill="none" xmlns="http://www.w3.org/2000/svg">
<path fill-rule="evenodd" clip-rule="evenodd" d="M20 6.96036C20 3.46036 17.538 0.960358 14.5 0.960358C12.64 0.960358 11 1.96036 10 2.96036C9 1.96036 7.36 0.960358 5.5 0.960358C2.5 0.960358 0 3.46036 0 6.96036C0 13.5613 6.66916 17.4945 9.52595 19.1793C9.69867 19.2812 9.85746 19.3748 10 19.4604C10.1425 19.3748 10.3013 19.2812 10.4741 19.1793C13.3308 17.4945 20 13.5613 20 6.96036ZM13.354 14.8634C12.61 15.4554 11.815 16.0084 10.934 16.5644C10.635 16.7524 10.339 16.9334 10 17.1354C9.661 16.9334 9.365 16.7524 9.066 16.5634C8.185 16.0084 7.39 15.4554 6.645 14.8634C3.666 12.4934 2 9.90436 2 6.96036C2 4.61636 3.56 2.96036 5.5 2.96036C6.576 2.96036 7.74 3.53036 8.586 4.37436L10 5.78836L11.414 4.37436C12.26 3.53036 13.424 2.96036 14.5 2.96036C16.463 2.96036 18 4.60036 18 6.96036C18 9.90336 16.335 12.4934 13.354 14.8634Z" fill="#ffffff"/>
</svg>
